<?xml version="1.0" encoding="utf-8"?><!-- Generator: Adobe Illustrator 27.5.0, SVG Export Plug-In . SVG Version: 6.00 Build 0)  -->
<svg version="1.1" xmlns="http://www.w3.org/2000/svg" xmlns:xlink="http://www.w3.org/1999/xlink"
    x="0px" y="0px" viewBox="0 0 3710 3710" style="enable-background:new 0 0 3710 3710;"
    xml:space="preserve">
    <g id="Illustration">
	<g>
		<linearGradient id="SVGID_1_" gradientUnits="userSpaceOnUse" x1="3594.9043" y1="4054.6978"
            x2="1124.9492" y2="987.1687">
			<stop offset="0" style="stop-color:#DAE3FE" />
            <stop offset="1" style="stop-color:#E9EFFD" />
		</linearGradient>
        <path style="fill:url(#SVGID_1_);" d="M2915.479,2844.924c-56.738,59.724-110.423,98.24-152.838,128.669
			c-498.585,357.698-1088.543,253.431-1213.926,227.968c-185.151-37.601-543.044-110.282-801.794-414.531
			c-391.467-460.303-330.51-1185.497-26.862-1664.208c55.542-87.564,348.932-573.567,945.244-651.506
			c360.882-47.168,781.554,47.964,1086.194,303.161C3390.962,1310.158,3345.439,2392.329,2915.479,2844.924z" />
        <g>
			<g style="opacity:0.86;">
				<path style="fill:#91B3FA;" d="M609.823,1694.318c-58.295-137.599-65.785-280.776-30.652-398.952
					c31.407-105.641,21.596-219.658-29.412-317.233c-5.362-10.257-10.375-20.857-15.002-31.782
					c-70.11-165.487-25.55-342.596,99.529-395.588c125.078-52.991,283.31,38.205,353.42,203.69
					c14.337,33.839,23.87,68.159,28.899,101.801c16.05,107.37,70.596,205.789,155.961,272.934
					c76.286,60.006,142.111,144.833,185.816,247.994c65.185,153.858,66.852,314.698,16.434,439.757
					c-19.07,47.303-29.52,97.841-30.384,148.796c-1.436,84.673-42.09,158.86-112.312,188.612
					c-75.754,32.094-164.716,3.491-227.846-64.858c-35.725-38.677-78.604-69.822-125.541-93.766
					C767.93,1939.202,668.764,1833.437,609.823,1694.318z" />
                <path style="opacity:0.57;fill:#FFFFFF;" d="M665.072,745.364c29.995,116.292,63.703,231.526,98.614,346.408
					c8.716,28.723,17.892,57.305,26.975,85.914l13.632,42.912l13.992,42.798c9.438,28.497,18.483,57.124,28.245,85.515l29.275,85.17
					c20.243,56.53,40.004,113.23,61.298,169.383c10.606,28.089,20.662,56.381,31.841,84.256l33.138,83.763
					c45.31,111.229,93.438,221.372,147.045,328.865l4.656-2.263l-37.046-81.953l-9.302-20.461l-8.792-20.693l-17.503-41.417
					l-17.577-41.375c-5.884-13.779-11.256-27.781-16.91-41.659c-11.121-27.834-22.461-55.577-33.401-83.48
					c-43.039-111.908-84.593-224.386-123.821-337.708c-19.181-56.809-38.848-113.45-57.635-170.399l-14.207-42.67l-13.85-42.79
					c-9.251-28.521-18.5-57.043-27.462-85.658c-18.412-57.074-36.417-114.286-53.953-171.642
					c-17.839-57.263-35.142-114.709-52.259-172.183L665.072,745.364z" />
			</g>
            <g>
				<path style="fill:#BDD0FB;" d="M697.834,2375.555c-62.903-86.538-91.342-185.132-86.058-273.146
					c4.724-78.682-20.602-156.575-71.939-216.39c-5.395-6.287-10.604-12.87-15.597-19.74
					c-75.649-104.078-73.363-234.687,5.108-291.725c78.472-57.039,203.411-18.905,279.061,85.172
					c15.469,21.282,27.673,43.67,36.632,66.311c28.59,72.259,82.527,132.091,152.841,165.174
					c62.837,29.562,122.419,78.109,169.579,142.989c70.335,96.766,97.588,208.604,82.778,303.875
					c-5.6,36.035-4.676,72.941,2.988,108.594c12.737,59.25-3.528,117.494-47.583,149.516
					c-47.525,34.543-114.093,28.906-169.125-8.589c-31.142-21.215-66.043-36.033-102.6-45.178
					C847.617,2520.832,761.43,2463.05,697.834,2375.555z" />
                <path style="opacity:0.57;fill:#FFFFFF;" d="M582.347,1705.245c39.745,76.236,81.903,151.138,124.842,225.6
					c10.727,18.621,21.749,37.066,32.714,55.547l16.453,27.72l16.681,27.584c11.193,18.343,22.133,36.843,33.533,55.062
					l34.197,54.661c23.261,36.148,46.215,72.492,70.148,108.21c11.94,17.873,23.529,35.977,35.833,53.609l36.656,53.059
					c49.586,70.245,100.956,139.281,155.71,205.589l2.874-2.327l-39.083-51.168l-9.794-12.767l-9.478-13.01l-18.902-26.053
					l-18.949-26.015c-6.33-8.659-12.342-17.554-18.528-26.319c-12.258-17.613-24.652-35.127-36.793-52.82
					c-48.116-71.082-95.288-142.802-140.979-215.483c-22.568-36.516-45.446-72.833-67.762-109.508l-16.813-27.458l-16.581-27.599
					c-11.067-18.392-22.132-36.786-33.012-55.288c-22.075-36.823-43.89-73.807-65.403-110.965
					c-21.708-37.049-43.07-74.307-64.308-111.615L582.347,1705.245z" />
			</g>
		</g>
        <g>
			<path style="fill:#91B3FA;" d="M2127.363,3027.528c0,0,163.393-1384.999,769.02-2194.758
				c40.712-54.434,129.534-44.417,156.463,17.845C3232.916,1266.948,3640.47,2544.334,2127.363,3027.528z" />
            <path style="opacity:0.25;fill:#FFFFFF;" d="M2258.364,2925.589c-3.069,3.586,2.207,8.195,5.763,5.035
				c131.102-116.488,624.206-673.021,701.44-1687.159c0.248-3.257-4.872-3.952-5.417-0.729
				C2919.957,1480.153,2743.683,2358.536,2258.364,2925.589z" />
		</g>
        <g>
			<g>

					<linearGradient id="SVGID_00000054238991709271322340000013786553262049638050_"
                        gradientUnits="userSpaceOnUse" x1="1906.5248" y1="3277.5181" x2="1826.6169"
                        y2="1344.7709">
					<stop offset="0" style="stop-color:#09005D" />
                        <stop offset="1" style="stop-color:#bbb1d8" />
				</linearGradient>
                <path style="fill:url(#SVGID_00000054238991709271322340000013786553262049638050_);"
                    d="M1152.723,488.824l1412.38,16.763
					c78.074,0.927,139.309,73.533,139.258,164.755l-1.255,2256.623c-0.035,63.13-47.456,115.49-104.652,115.762l-1514.213,7.202
					c-53.427,0.254-97.254-47.91-97.254-107.042V681.301C986.987,574.152,1061.18,487.737,1152.723,488.824z" />

                <linearGradient id="SVGID_00000106862790805853688330000007754305501728540295_"
                    gradientUnits="userSpaceOnUse" x1="1259.9012" y1="739.2576" x2="3178.7947"
                    y2="4087.9099">
					<stop offset="0" style="stop-color:#FF928E" />
                    <stop offset="1" style="stop-color:#FE7062" />
				</linearGradient>
                <path style="fill:url(#SVGID_00000106862790805853688330000007754305501728540295_);"
                    d="M2491.938,708.899H1190.154
					c-54.593,0-98.444,44.99-98.444,98.168v1894.667c0,53.178,43.851,94.406,98.444,94.406h1301.784
					c54.593,0,99.254-41.228,99.254-94.406V807.067C2591.192,753.889,2546.53,708.899,2491.938,708.899z" />
			</g>
            <g>
				<path style="opacity:0.54;fill:#FFFFFF;" d="M2413.87,910.981h-332.379c-14.601,0-26.439,11.003-26.439,24.576
					c0,13.573,11.838,24.576,26.439,24.576h332.379c14.602,0,26.439-11.003,26.439-24.576
					C2440.309,921.984,2428.472,910.981,2413.87,910.981z" />
                <path style="opacity:0.5;fill:#FFFFFF;" d="M2413.87,834.076h-332.379c-14.601,0-26.439,11.002-26.439,24.576
					c0,13.573,11.838,24.576,26.439,24.576h332.379c14.602,0,26.439-11.003,26.439-24.576
					C2440.309,845.078,2428.472,834.076,2413.87,834.076z" />
			</g>
            <g>
				<path style="opacity:0.47;fill:#FFFFFF;" d="M2474.017,2741.265H1201.862c-14.182,0-25.785-11.603-25.785-25.785v-765.441
					c0-14.182,11.603-25.785,25.785-25.785h1272.155c14.182,0,25.785,11.603,25.785,25.785v765.441
					C2499.802,2729.662,2488.199,2741.265,2474.017,2741.265z" />
                <g style="opacity:0.5;">
					<path style="fill:#FFFFFF;" d="M1743.015,2013.981l650.302-7.78c6.666-0.08,12.079,5.366,11.959,12.031l-0.188,10.465
						c-0.116,6.463-5.403,11.635-11.867,11.608l-650.114-2.686c-6.592-0.027-11.887-5.441-11.769-12.032
						C1731.453,2019.198,1736.625,2014.057,1743.015,2013.981z" />
                    <path style="fill:#FFFFFF;" d="M1730.36,2080.079l-0.08,4.46c-0.117,6.527,5.079,11.913,11.606,12.03l649.953,11.661
						c6.527,0.117,11.913-5.079,12.03-11.606l0.08-4.46c0.117-6.527-5.079-11.913-11.606-12.03l-649.953-11.661
						C1735.864,2068.356,1730.478,2073.552,1730.36,2080.079z" />
                    <path style="fill:#FFFFFF;" d="M1926.587,2141.886l-0.035,1.958c-0.117,6.527,5.079,11.913,11.606,12.03l452.68,8.122
						c6.527,0.117,11.913-5.079,12.03-11.606l0.165-9.201c0.118-6.601-5.193-12.019-11.795-12.032l-452.81-0.878
						C1931.974,2130.266,1926.703,2135.433,1926.587,2141.886z" />
                    <g>
						<path style="fill:#FFFFFF;" d="M2408.167,2692.293l-1125.253,4.328c-2.823,0.011-5.119-2.268-5.13-5.091
							c-0.011-2.823,2.268-5.119,5.091-5.13l1125.253-4.328c2.823-0.011,5.119,2.268,5.13,5.091
							S2410.991,2692.282,2408.167,2692.293z" />
					</g>
                    <path style="fill:#FFFFFF;" d="M1373.665,2672.645h-67.679c-1.026,0-1.858-0.832-1.858-1.858v-63.643
						c0-1.026,0.832-1.858,1.858-1.858h67.679c1.026,0,1.858,0.832,1.858,1.858v63.643
						C1375.523,2671.813,1374.691,2672.645,1373.665,2672.645z" />
                    <path style="fill:#FFFFFF;" d="M1467.232,2672.645h-67.679c-1.026,0-1.858-0.832-1.858-1.858v-63.643
						c0-1.026,0.832-1.858,1.858-1.858h67.679c1.026,0,1.858,0.832,1.858,1.858v63.643
						C1469.09,2671.813,1468.258,2672.645,1467.232,2672.645z" />
                    <path style="fill:#FFFFFF;" d="M1559.116,2672.645h-64.314c-1.956,0-3.541-1.585-3.541-3.541V2431.64
						c0-1.956,1.585-3.541,3.541-3.541h64.314c1.956,0,3.541,1.585,3.541,3.541v237.464
						C1562.657,2671.06,1561.071,2672.645,1559.116,2672.645z" />
                    <path style="fill:#FFFFFF;" d="M1654.365,2672.645h-67.679c-1.026,0-1.858-0.832-1.858-1.858v-63.643
						c0-1.026,0.832-1.858,1.858-1.858h67.679c1.026,0,1.858,0.832,1.858,1.858v63.643
						C1656.223,2671.813,1655.391,2672.645,1654.365,2672.645z" />
                    <path style="fill:#FFFFFF;" d="M1745.184,2672.645H1683c-2.544,0-4.606-2.063-4.606-4.606v-404.648
						c0-2.544,2.062-4.606,4.606-4.606h62.183c2.544,0,4.606,2.063,4.606,4.606v404.648
						C1749.79,2670.583,1747.728,2672.645,1745.184,2672.645z" />
                    <path style="fill:#FFFFFF;" d="M1841.499,2672.645h-67.679c-1.026,0-1.858-0.832-1.858-1.858v-63.643
						c0-1.026,0.832-1.858,1.858-1.858h67.679c1.026,0,1.858,0.832,1.858,1.858v63.643
						C1843.357,2671.813,1842.525,2672.645,1841.499,2672.645z" />
                    <path style="fill:#FFFFFF;" d="M1932.815,2672.645h-63.179c-2.269,0-4.108-1.839-4.108-4.108V2347.55
						c0-2.269,1.839-4.108,4.108-4.108h63.179c2.269,0,4.108,1.839,4.108,4.108v320.987
						C1936.924,2670.806,1935.084,2672.645,1932.815,2672.645z" />
                    <path style="fill:#FFFFFF;" d="M2028.632,2672.645h-67.679c-1.026,0-1.858-0.832-1.858-1.858v-63.643
						c0-1.026,0.832-1.858,1.858-1.858h67.679c1.026,0,1.858,0.832,1.858,1.858v63.643
						C2030.49,2671.813,2029.658,2672.645,2028.632,2672.645z" />
                    <path style="fill:#FFFFFF;" d="M2119.451,2672.645h-62.183c-2.544,0-4.606-2.063-4.606-4.606v-404.648
						c0-2.544,2.063-4.606,4.606-4.606h62.183c2.544,0,4.606,2.063,4.606,4.606v404.648
						C2124.057,2670.583,2121.995,2672.645,2119.451,2672.645z" />
                    <path style="fill:#FFFFFF;" d="M2215.765,2672.645h-67.679c-1.026,0-1.858-0.832-1.858-1.858v-63.643
						c0-1.026,0.832-1.858,1.858-1.858h67.679c1.026,0,1.858,0.832,1.858,1.858v63.643
						C2217.624,2671.813,2216.792,2672.645,2215.765,2672.645z" />
                    <path style="fill:#FFFFFF;" d="M2307.933,2672.645h-64.882c-1.799,0-3.257-1.458-3.257-3.257v-200.416
						c0-1.799,1.458-3.257,3.257-3.257h64.882c1.799,0,3.257,1.458,3.257,3.257v200.416
						C2311.191,2671.187,2309.732,2672.645,2307.933,2672.645z" />
                    <path style="fill:#FFFFFF;" d="M2402.899,2672.645h-67.679c-1.026,0-1.858-0.832-1.858-1.858v-63.643
						c0-1.026,0.832-1.858,1.858-1.858h67.679c1.026,0,1.858,0.832,1.858,1.858v63.643
						C2404.757,2671.813,2403.925,2672.645,2402.899,2672.645z" />
                    <circle style="opacity:0.7;fill:#FFFFFF;" cx="1388.685" cy="2101.064"
                        r="110.9" />
				</g>
			</g>
            <g>

					<linearGradient id="SVGID_00000170258779155582492650000014368619305580730247_"
                        gradientUnits="userSpaceOnUse" x1="1302.3934" y1="637.4202" x2="1337.3522"
                        y2="-36.7939">
					<stop offset="0" style="stop-color:#E1473D" />
                        <stop offset="1" style="stop-color:#E9605A" />
				</linearGradient>
                <path style="fill:url(#SVGID_00000170258779155582492650000014368619305580730247_);"
                    d="M1265.838,844.768l23.119,72.059
					l23.047-72.059h32.864v103.572h-25.039v-24.186l2.419-49.509l-25.039,73.695h-16.503l-25.11-73.766l2.419,49.58v24.186h-24.969
					V844.768H1265.838z" />

                <linearGradient id="SVGID_00000060734881799241852930000011834650527801138316_"
                    gradientUnits="userSpaceOnUse" x1="1416.259" y1="643.3248" x2="1451.2179"
                    y2="-30.8893">
					<stop offset="0" style="stop-color:#E1473D" />
                    <stop offset="1" style="stop-color:#E9605A" />
				</linearGradient>
                <path style="fill:url(#SVGID_00000060734881799241852930000011834650527801138316_);"
                    d="M1448.44,898.688
					c0,10.101-1.874,19.041-5.62,26.817c-3.746,7.779-9.069,13.764-15.969,17.962c-6.9,4.197-14.761,6.295-23.581,6.295
					c-8.821,0-16.646-2.028-23.475-6.082c-6.829-4.055-12.153-9.852-15.969-17.392c-3.818-7.54-5.822-16.195-6.011-25.965v-5.833
					c0-10.148,1.861-19.1,5.584-26.854c3.723-7.753,9.057-13.74,16.005-17.961c6.947-4.22,14.855-6.331,23.723-6.331
					c8.773,0,16.597,2.087,23.474,6.26c6.876,4.174,12.223,10.113,16.041,17.819c3.817,7.706,5.75,16.538,5.797,26.497V898.688z
					 M1423.046,894.348c0-10.29-1.719-18.103-5.157-23.439c-3.439-5.335-8.358-8.003-14.76-8.003c-12.52,0-19.135,9.39-19.847,28.17
					l-0.071,7.611c0,10.149,1.682,17.95,5.05,23.403c3.367,5.454,8.37,8.18,15.01,8.18c6.306,0,11.168-2.679,14.582-8.038
					c3.415-5.358,5.145-13.064,5.193-23.119V894.348z" />

                <linearGradient id="SVGID_00000120521389753436407840000014928885195979491510_"
                    gradientUnits="userSpaceOnUse" x1="1517.4236" y1="648.5708" x2="1552.3824"
                    y2="-25.6431">
					<stop offset="0" style="stop-color:#E1473D" />
                    <stop offset="1" style="stop-color:#E9605A" />
				</linearGradient>
                <path style="fill:url(#SVGID_00000120521389753436407840000014928885195979491510_);"
                    d="M1547.815,948.339h-24.826
					l-36.705-64.447v64.447h-24.969V844.768h24.969l36.634,64.447v-64.447h24.897V948.339z" />

                <linearGradient id="SVGID_00000000220611741067172240000015360694254558775697_"
                    gradientUnits="userSpaceOnUse" x1="1615.6489" y1="653.6639" x2="1650.6078"
                    y2="-20.5503">
					<stop offset="0" style="stop-color:#E1473D" />
                    <stop offset="1" style="stop-color:#E9605A" />
				</linearGradient>
                <path style="fill:url(#SVGID_00000000220611741067172240000015360694254558775697_);"
                    d="M1563.607,948.339V844.768h33.362
					c9.152,0,17.38,2.074,24.684,6.224c7.302,4.15,13.005,10.006,17.108,17.57c4.101,7.564,6.177,16.041,6.224,25.43v4.767
					c0,9.485-2.004,17.986-6.011,25.501c-4.008,7.518-9.651,13.398-16.93,17.642c-7.28,4.245-15.4,6.391-24.364,6.438H1563.607z
					 M1588.576,864.044v65.088h8.678c7.16,0,12.661-2.548,16.503-7.647c3.841-5.097,5.762-12.673,5.762-22.727v-4.482
					c0-10.005-1.921-17.546-5.762-22.621c-3.841-5.073-9.437-7.611-16.788-7.611H1588.576z" />

                <linearGradient id="SVGID_00000029734292484332444670000017389408953187778701_"
                    gradientUnits="userSpaceOnUse" x1="1713.1398" y1="658.7189" x2="1748.0988"
                    y2="-15.4957">
					<stop offset="0" style="stop-color:#E1473D" />
                    <stop offset="1" style="stop-color:#E9605A" />
				</linearGradient>
                <path style="fill:url(#SVGID_00000029734292484332444670000017389408953187778701_);"
                    d="M1715.124,928.99h-34.216
					l-5.975,19.349h-26.676l37.986-103.572h23.474l38.27,103.572h-26.818L1715.124,928.99z M1686.884,909.713h22.265l-11.168-35.923
					L1686.884,909.713z" />

                <linearGradient id="SVGID_00000157285052988861729270000015839984867380287419_"
                    gradientUnits="userSpaceOnUse" x1="1792.2421" y1="662.8206" x2="1827.2009"
                    y2="-11.3936">
					<stop offset="0" style="stop-color:#E1473D" />
                    <stop offset="1" style="stop-color:#E9605A" />
				</linearGradient>
                <path style="fill:url(#SVGID_00000157285052988861729270000015839984867380287419_);"
                    d="M1782.773,889.724l19.064-44.957h26.96
					l-33.362,66.369v37.203h-25.324v-37.203l-33.291-66.369h26.818L1782.773,889.724z" />
			</g>
            <g>
				<path style="opacity:0.7;fill:#FFFFFF;" d="M2491.387,1294.06H1194.48c-7.375,0-13.41-6.034-13.41-13.409v-194.137
					c0-7.375,6.034-13.41,13.41-13.41h1296.907c7.375,0,13.409,6.034,13.409,13.41v194.137
					C2504.796,1288.026,2498.762,1294.06,2491.387,1294.06z" />
                <g>
					<path style="fill:#91B3FA;" d="M1284.488,1261.351L1284.488,1261.351c-18.633-15.159-21.476-42.807-6.317-61.44l41.894-51.496
						c15.159-18.633,42.807-21.476,61.44-6.317l0,0c18.633,15.159,21.476,42.807,6.317,61.44l-41.894,51.496
						C1330.769,1273.667,1303.121,1276.51,1284.488,1261.351z" />

                    <linearGradient id="SVGID_00000097465464125543731680000010136746920824432310_"
                        gradientUnits="userSpaceOnUse" x1="2124.9417" y1="-194.976" x2="1938.4834"
                        y2="137.9858">
						<stop offset="0" style="stop-color:#FF928E" />
                        <stop offset="1" style="stop-color:#FE7062" />
					</linearGradient>
                    <path
                        style="fill:url(#SVGID_00000097465464125543731680000010136746920824432310_);"
                        d="M1377.683,1216.001l39.658-48.747
						c15.159-18.633,12.316-46.281-6.317-61.44c-18.633-15.159-46.281-12.316-61.44,6.317l-40.462,49.736
						c4.219,5.477,8.953,10.571,14.029,15.244C1339.377,1191.957,1357.552,1206.286,1377.683,1216.001z" />
				</g>
                <g>

						<linearGradient
                            id="SVGID_00000119832671461729646890000012715661659238817160_"
                            gradientUnits="userSpaceOnUse" x1="2167.1189" y1="1188.4294"
                            x2="2230.135" y2="1188.4294">
						<stop offset="0" style="stop-color:#E1473D" />
                            <stop offset="1" style="stop-color:#E9605A" />
					</linearGradient>
                    <path
                        style="fill:url(#SVGID_00000119832671461729646890000012715661659238817160_);"
                        d="M2230.135,1155.51l-32.679,76.653
						h-21.386l32.739-71.847h-41.69v-15.618h63.016V1155.51z" />

                    <linearGradient id="SVGID_00000158744176182701006940000007043345635672200081_"
                        gradientUnits="userSpaceOnUse" x1="2242.2695" y1="1222.6707" x2="2264.6165"
                        y2="1222.6707">
						<stop offset="0" style="stop-color:#E1473D" />
                        <stop offset="1" style="stop-color:#E9605A" />
					</linearGradient>
                    <path
                        style="fill:url(#SVGID_00000158744176182701006940000007043345635672200081_);"
                        d="M2253.443,1212.519
						c3.203,0,5.866,0.952,7.99,2.854c2.122,1.902,3.184,4.336,3.184,7.299c0,2.964-1.062,5.397-3.184,7.298
						c-2.123,1.903-4.786,2.854-7.99,2.854c-3.244,0-5.917-0.961-8.02-2.883c-2.103-1.922-3.154-4.345-3.154-7.268
						s1.051-5.347,3.154-7.269C2247.526,1213.48,2250.199,1212.519,2253.443,1212.519z" />

                    <linearGradient id="SVGID_00000068653210462343802330000010632557284395695747_"
                        gradientUnits="userSpaceOnUse" x1="2277.5315" y1="1188.4294" x2="2338.5056"
                        y2="1188.4294">
						<stop offset="0" style="stop-color:#E1473D" />
                        <stop offset="1" style="stop-color:#E9605A" />
					</linearGradient>
                    <path
                        style="fill:url(#SVGID_00000068653210462343802330000010632557284395695747_);"
                        d="M2338.506,1196.419
						c0,11.815-2.654,20.926-7.96,27.333c-5.307,6.408-12.786,9.612-22.437,9.612c-9.732,0-17.261-3.223-22.588-9.672
						c-5.326-6.447-7.99-15.537-7.99-27.273v-15.978c0-11.814,2.653-20.925,7.96-27.333c5.306-6.407,12.804-9.612,22.497-9.612
						c9.692,0,17.201,3.224,22.528,9.672c5.326,6.448,7.99,15.558,7.99,27.332V1196.419z M2318.261,1177.857
						c0-6.286-0.821-10.983-2.463-14.087c-1.643-3.104-4.245-4.656-7.81-4.656c-3.484,0-6.017,1.442-7.599,4.326
						c-1.583,2.883-2.433,7.249-2.553,13.095v22.347c0,6.529,0.821,11.305,2.463,14.328c1.642,3.024,4.245,4.535,7.81,4.535
						c3.444,0,5.987-1.472,7.629-4.416c1.642-2.944,2.483-7.559,2.523-13.847V1177.857z" />

                    <linearGradient id="SVGID_00000125573361845885623770000008669018385896923536_"
                        gradientUnits="userSpaceOnUse" x1="2348.7776" y1="1188.4294" x2="2409.7515"
                        y2="1188.4294">
						<stop offset="0" style="stop-color:#E1473D" />
                        <stop offset="1" style="stop-color:#E9605A" />
					</linearGradient>
                    <path
                        style="fill:url(#SVGID_00000125573361845885623770000008669018385896923536_);"
                        d="M2409.751,1196.419
						c0,11.815-2.653,20.926-7.959,27.333c-5.307,6.408-12.786,9.612-22.437,9.612c-9.732,0-17.262-3.223-22.588-9.672
						c-5.326-6.447-7.99-15.537-7.99-27.273v-15.978c0-11.814,2.653-20.925,7.96-27.333c5.306-6.407,12.804-9.612,22.497-9.612
						c9.692,0,17.2,3.224,22.527,9.672c5.326,6.448,7.99,15.558,7.99,27.332V1196.419z M2389.507,1177.857
						c0-6.286-0.821-10.983-2.463-14.087c-1.643-3.104-4.245-4.656-7.81-4.656c-3.484,0-6.017,1.442-7.599,4.326
						c-1.583,2.883-2.433,7.249-2.553,13.095v22.347c0,6.529,0.821,11.305,2.463,14.328c1.642,3.024,4.245,4.535,7.81,4.535
						c3.444,0,5.987-1.472,7.629-4.416c1.642-2.944,2.483-7.559,2.523-13.847V1177.857z" />
				</g>
			</g>
            <g>
				<path style="opacity:0.7;fill:#FFFFFF;" d="M2493.549,1574.145H1196.642c-7.375,0-13.409-6.034-13.409-13.41v-194.137
					c0-7.375,6.034-13.41,13.409-13.41h1296.907c7.375,0,13.409,6.034,13.409,13.41v194.137
					C2506.959,1568.111,2500.925,1574.145,2493.549,1574.145z" />
                <g>

						<ellipse transform="matrix(0.7071 -0.7071 0.7071 0.7071 -645.223 1377.7279)"
                            style="fill:#91B3FA;" cx="1340.453" cy="1467.717" rx="71.736"
                            ry="71.736" />
                    <path style="opacity:0.25;fill:#FFFFFF;" d="M1384.54,1411.81l2.896,2.282c0.342,0.269,0.401,0.769,0.132,1.111
						l-87.138,110.616c-0.269,0.342-0.769,0.401-1.111,0.132l-2.896-2.281c-0.342-0.269-0.401-0.769-0.132-1.111l87.138-110.616
						C1383.698,1411.6,1384.198,1411.541,1384.54,1411.81z" />
				</g>
                <g>

						<linearGradient
                            id="SVGID_00000083801983885022299670000005751913432755520922_"
                            gradientUnits="userSpaceOnUse" x1="2175.7046" y1="1465.8866"
                            x2="2236.738" y2="1465.8866">
						<stop offset="0" style="stop-color:#E1473D" />
                            <stop offset="1" style="stop-color:#E9605A" />
					</linearGradient>
                    <path
                        style="fill:url(#SVGID_00000083801983885022299670000005751913432755520922_);"
                        d="M2234.996,1445.552
						c0,4.246-1.051,7.989-3.154,11.233c-2.103,3.244-4.996,5.847-8.68,7.809c4.165,2.043,7.469,4.836,9.912,8.381
						c2.442,3.544,3.664,7.74,3.664,12.585c0,7.809-2.694,13.977-8.08,18.503c-5.387,4.526-12.806,6.788-22.257,6.788
						c-9.492,0-16.981-2.272-22.467-6.818c-5.487-4.544-8.23-10.702-8.23-18.472c0-4.686,1.201-8.831,3.604-12.435
						c2.403-3.605,5.806-6.448,10.212-8.531c-3.724-1.962-6.648-4.565-8.771-7.809c-2.123-3.244-3.184-6.988-3.184-11.233
						c0-7.608,2.583-13.616,7.749-18.022c5.166-4.405,12.135-6.608,20.905-6.608c8.85,0,15.859,2.203,21.026,6.608
						C2232.413,1431.936,2234.996,1437.944,2234.996,1445.552z M2216.433,1483.939c0-3.605-0.931-6.377-2.793-8.32
						c-1.862-1.942-4.316-2.914-7.359-2.914c-3.044,0-5.507,0.972-7.389,2.914c-1.883,1.943-2.823,4.715-2.823,8.32
						c0,3.483,0.951,6.238,2.854,8.26c1.901,2.022,4.394,3.034,7.479,3.034c3.004,0,5.426-1.001,7.269-3.004
						C2215.512,1490.226,2216.433,1487.463,2216.433,1483.939z M2206.221,1436.542c-2.723,0-4.796,0.891-6.217,2.673
						c-1.422,1.783-2.133,4.256-2.133,7.42c0,3.123,0.721,5.647,2.163,7.569c1.442,1.922,3.564,2.883,6.368,2.883
						c2.763,0,4.836-0.961,6.217-2.883c1.382-1.922,2.073-4.446,2.073-7.569c0-3.125-0.712-5.588-2.133-7.389
						C2211.137,1437.443,2209.024,1436.542,2206.221,1436.542z" />

                    <linearGradient id="SVGID_00000089544943373960296850000013257474937341082302_"
                        gradientUnits="userSpaceOnUse" x1="2248.9331" y1="1500.158" x2="2271.2798"
                        y2="1500.158">
						<stop offset="0" style="stop-color:#E1473D" />
                        <stop offset="1" style="stop-color:#E9605A" />
					</linearGradient>
                    <path
                        style="fill:url(#SVGID_00000089544943373960296850000013257474937341082302_);"
                        d="M2260.106,1490.006
						c3.204,0,5.866,0.952,7.99,2.854c2.122,1.902,3.184,4.336,3.184,7.299c0,2.964-1.061,5.397-3.184,7.298
						c-2.124,1.903-4.786,2.854-7.99,2.854c-3.244,0-5.917-0.961-8.02-2.883c-2.103-1.922-3.154-4.345-3.154-7.268
						c0-2.924,1.051-5.347,3.154-7.269C2254.189,1490.967,2256.862,1490.006,2260.106,1490.006z" />

                    <linearGradient id="SVGID_00000036238394113063776400000010469665102819113351_"
                        gradientUnits="userSpaceOnUse" x1="2281.9126" y1="1465.8866" x2="2345.4695"
                        y2="1465.8866">
						<stop offset="0" style="stop-color:#E1473D" />
                        <stop offset="1" style="stop-color:#E9605A" />
					</linearGradient>
                    <path
                        style="fill:url(#SVGID_00000036238394113063776400000010469665102819113351_);"
                        d="M2302.938,1457.446h9.552
						c7.569,0,11.354-3.703,11.354-11.113c0-2.884-0.901-5.236-2.703-7.059c-1.802-1.822-4.346-2.733-7.629-2.733
						c-2.683,0-5.016,0.78-6.998,2.342c-1.983,1.562-2.974,3.505-2.974,5.827h-20.245c0-4.605,1.281-8.71,3.844-12.315
						c2.563-3.604,6.117-6.417,10.663-8.44c4.545-2.021,9.541-3.034,14.988-3.034c9.731,0,17.38,2.223,22.948,6.668
						c5.566,4.446,8.35,10.553,8.35,18.322c0,3.765-1.152,7.32-3.454,10.664c-2.303,3.344-5.657,6.057-10.062,8.139
						c4.645,1.682,8.29,4.235,10.933,7.659c2.643,3.424,3.965,7.66,3.965,12.706c0,7.809-3.004,14.057-9.011,18.743
						c-6.007,4.686-13.898,7.028-23.668,7.028c-5.728,0-11.044-1.092-15.95-3.274c-4.906-2.182-8.62-5.206-11.143-9.071
						c-2.523-3.864-3.784-8.26-3.784-13.186h20.365c0,2.683,1.081,5.007,3.244,6.969c2.163,1.963,4.826,2.944,7.99,2.944
						c3.564,0,6.407-0.992,8.53-2.974c2.122-1.982,3.184-4.515,3.184-7.599c0-4.405-1.102-7.529-3.304-9.371
						c-2.203-1.842-5.247-2.764-9.131-2.764h-9.852V1457.446z" />

                    <linearGradient id="SVGID_00000178206072091808470270000004949549765666230190_"
                        gradientUnits="userSpaceOnUse" x1="2355.4412" y1="1465.9167" x2="2416.4148"
                        y2="1465.9167">
						<stop offset="0" style="stop-color:#E1473D" />
                        <stop offset="1" style="stop-color:#E9605A" />
					</linearGradient>
                    <path
                        style="fill:url(#SVGID_00000178206072091808470270000004949549765666230190_);"
                        d="M2416.415,1473.906
						c0,11.815-2.653,20.926-7.959,27.333c-5.307,6.408-12.786,9.612-22.437,9.612c-9.732,0-17.262-3.223-22.588-9.672
						c-5.327-6.447-7.99-15.537-7.99-27.273v-15.978c0-11.814,2.653-20.925,7.96-27.333c5.306-6.407,12.804-9.612,22.497-9.612
						c9.692,0,17.2,3.224,22.527,9.672c5.326,6.448,7.99,15.558,7.99,27.332V1473.906z M2396.171,1455.344
						c0-6.286-0.821-10.983-2.463-14.087c-1.643-3.104-4.245-4.656-7.81-4.656c-3.484,0-6.017,1.442-7.599,4.326
						c-1.583,2.883-2.433,7.249-2.553,13.095v22.347c0,6.529,0.821,11.304,2.463,14.328c1.642,3.024,4.245,4.535,7.81,4.535
						c3.444,0,5.986-1.472,7.629-4.416c1.642-2.943,2.483-7.559,2.523-13.847V1455.344z" />
				</g>
			</g>
            <g>
				<path style="opacity:0.7;fill:#FFFFFF;" d="M2491.219,1854.23H1194.312c-7.375,0-13.409-6.034-13.409-13.41v-194.137
					c0-7.375,6.034-13.409,13.409-13.409h1296.907c7.375,0,13.409,6.034,13.409,13.409v194.137
					C2504.628,1848.195,2498.594,1854.23,2491.219,1854.23z" />
                <g>
					<path style="fill:#91B3FA;" d="M1283.849,1821.52L1283.849,1821.52c-18.633-15.159-21.476-42.807-6.317-61.44l43.573-53.56
						c15.159-18.633,42.807-21.476,61.44-6.317l0,0c18.633,15.159,21.476,42.807,6.317,61.44l-43.573,53.56
						C1330.13,1833.837,1302.482,1836.679,1283.849,1821.52z" />

                    <linearGradient id="SVGID_00000088812276076710449450000016718689129534850236_"
                        gradientUnits="userSpaceOnUse" x1="2363.2627" y1="-61.5214" x2="2176.8042"
                        y2="271.4402">
						<stop offset="0" style="stop-color:#FF928E" />
                        <stop offset="1" style="stop-color:#FE7062" />
					</linearGradient>
                    <path
                        style="fill:url(#SVGID_00000088812276076710449450000016718689129534850236_);"
                        d="M1377.044,1776.17l39.658-48.747
						c15.159-18.633,12.316-46.281-6.317-61.44c-18.633-15.159-46.281-12.316-61.44,6.317l-40.462,49.736
						c4.219,5.477,8.953,10.57,14.029,15.244C1338.737,1752.127,1356.913,1766.455,1377.044,1776.17z" />
				</g>
                <g>

						<linearGradient
                            id="SVGID_00000023245710700652002990000005896597003946790294_"
                            gradientUnits="userSpaceOnUse" x1="2182.0674" y1="1747.1106"
                            x2="2243.1008" y2="1747.1106">
						<stop offset="0" style="stop-color:#E1473D" />
                            <stop offset="1" style="stop-color:#E9605A" />
					</linearGradient>
                    <path
                        style="fill:url(#SVGID_00000023245710700652002990000005896597003946790294_);"
                        d="M2222.556,1757.053
						c-4.366,3.925-9.251,5.887-14.658,5.887c-7.929,0-14.217-2.682-18.863-8.05c-4.646-5.366-6.969-12.535-6.969-21.505
						c0-5.606,1.301-10.813,3.905-15.618c2.602-4.806,6.257-8.61,10.963-11.414c4.706-2.803,9.902-4.205,15.589-4.205
						c5.767,0,10.983,1.453,15.649,4.355c4.665,2.904,8.3,7.008,10.903,12.315c2.603,5.307,3.944,11.424,4.025,18.352v7.749
						c0,9.652-1.892,18.022-5.676,25.11c-3.785,7.089-9.182,12.536-16.189,16.339c-7.009,3.806-15.179,5.707-24.51,5.707h-1.262
						v-16.22l3.845-0.06C2213.245,1775.115,2220.994,1768.868,2222.556,1757.053z M2213.365,1748.342
						c4.405,0,7.569-1.901,9.491-5.707v-8.409c0-5.607-0.941-9.752-2.823-12.436c-1.883-2.682-4.426-4.024-7.629-4.024
						c-2.844,0-5.226,1.522-7.148,4.565c-1.923,3.044-2.884,6.729-2.884,11.053c0,4.565,0.981,8.2,2.943,10.903
						C2207.277,1746.99,2209.961,1748.342,2213.365,1748.342z" />

                    <linearGradient id="SVGID_00000097474266929902479350000006182893806789568654_"
                        gradientUnits="userSpaceOnUse" x1="2255.5964" y1="1781.382" x2="2277.9434"
                        y2="1781.382">
						<stop offset="0" style="stop-color:#E1473D" />
                        <stop offset="1" style="stop-color:#E9605A" />
					</linearGradient>
                    <path
                        style="fill:url(#SVGID_00000097474266929902479350000006182893806789568654_);"
                        d="M2266.77,1771.23
						c3.203,0,5.866,0.952,7.99,2.854c2.122,1.902,3.184,4.336,3.184,7.299c0,2.964-1.062,5.397-3.184,7.298
						c-2.123,1.903-4.786,2.854-7.99,2.854c-3.244,0-5.917-0.961-8.02-2.883c-2.103-1.922-3.154-4.345-3.154-7.268
						s1.051-5.347,3.154-7.269C2260.853,1772.191,2263.526,1771.23,2266.77,1771.23z" />

                    <linearGradient id="SVGID_00000079462680564081400830000016925378711955138959_"
                        gradientUnits="userSpaceOnUse" x1="2289.2969" y1="1747.1407" x2="2353.4543"
                        y2="1747.1407">
						<stop offset="0" style="stop-color:#E1473D" />
                        <stop offset="1" style="stop-color:#E9605A" />
					</linearGradient>
                    <path
                        style="fill:url(#SVGID_00000079462680564081400830000016925378711955138959_);"
                        d="M2344.563,1756.692h8.891v15.62
						h-8.891v18.562h-20.244v-18.562h-33.821l-1.201-12.375l35.022-56.348v-0.18h20.244V1756.692z M2308.58,1756.692h15.739v-26.912
						l-1.261,2.042L2308.58,1756.692z" />

                    <linearGradient id="SVGID_00000155140899519032884510000011328988228526537126_"
                        gradientUnits="userSpaceOnUse" x1="2361.8635" y1="1747.7415" x2="2422.9583"
                        y2="1747.7415">
						<stop offset="0" style="stop-color:#E1473D" />
                        <stop offset="1" style="stop-color:#E9605A" />
					</linearGradient>
                    <path
                        style="fill:url(#SVGID_00000155140899519032884510000011328988228526537126_);"
                        d="M2363.547,1748.149l5.346-44.741
						h51.122v15.739h-34.662l-1.982,17.375c1.442-0.845,3.334-1.589,5.677-2.233c2.343-0.644,4.635-0.966,6.878-0.966
						c8.69,0,15.368,2.574,20.034,7.719c4.665,5.146,6.999,12.365,6.999,21.657c0,5.607-1.252,10.684-3.754,15.228
						c-2.503,4.546-6.018,8.041-10.543,10.483c-4.526,2.443-9.872,3.664-16.039,3.664c-5.487,0-10.633-1.131-15.438-3.392
						c-4.806-2.26-8.571-5.361-11.294-9.303c-2.724-3.941-4.065-8.394-4.025-13.355h20.305c0.2,3.197,1.221,5.735,3.064,7.614
						c1.842,1.879,4.265,2.818,7.269,2.818c6.808,0,10.212-5.036,10.212-15.107c0-9.311-4.166-13.968-12.495-13.968
						c-4.726,0-8.251,1.519-10.573,4.556L2363.547,1748.149z" />
				</g>
			</g>
		</g>
        <g>

				<linearGradient id="SVGID_00000110456136227017514040000006389805803235420342_"
                    gradientUnits="userSpaceOnUse" x1="1712.8265" y1="1356.3278" x2="1686.1161"
                    y2="2057.4905">
				<stop offset="0" style="stop-color:#4F52FF" />
                    <stop offset="1" style="stop-color:#4042E2" />
			</linearGradient>
            <path style="fill:url(#SVGID_00000110456136227017514040000006389805803235420342_);" d="M2781.348,3186.6H528.665
				c-12.774,0-23.129-10.355-23.129-23.129v-616.129h2300.406v614.665C2805.941,3175.589,2794.931,3186.6,2781.348,3186.6z" />
            <path style="fill:#7D97F4;" d="M2718.093,3071.3H568.417c-45.053,0-81.575-36.522-81.575-81.575v-557.683h2307.679v562.83
				C2794.521,3037.082,2760.303,3071.3,2718.093,3071.3z" />
            <path style="opacity:0.3;fill:#FFFFFF;" d="M1479.406,3071.3h-8.619c-0.988,0-1.789-0.801-1.789-1.789v-635.679
				c0-0.988,0.801-1.789,1.789-1.789h8.619c0.988,0,1.79,0.801,1.79,1.789v635.679
				C1481.195,3070.499,1480.394,3071.3,1479.406,3071.3z" />
            <path style="opacity:0.3;fill:#FFFFFF;" d="M2459.318,3071.3h-8.619c-0.988,0-1.789-0.801-1.789-1.789v-635.679
				c0-0.988,0.801-1.789,1.789-1.789h8.619c0.988,0,1.79,0.801,1.79,1.789v635.679
				C2461.107,3070.499,2460.306,3071.3,2459.318,3071.3z" />
            <path style="opacity:0.3;fill:#FFFFFF;" d="M1812.819,3071.3h-8.619c-0.988,0-1.79-0.801-1.79-1.789v-635.679
				c0-0.988,0.801-1.789,1.79-1.789h8.619c0.988,0,1.79,0.801,1.79,1.789v635.679
				C1814.609,3070.499,1813.808,3071.3,1812.819,3071.3z" />
            <path style="opacity:0.3;fill:#FFFFFF;" d="M2135.198,3071.3h-8.619c-0.988,0-1.789-0.801-1.789-1.789v-635.679
				c0-0.988,0.801-1.789,1.789-1.789h8.619c0.988,0,1.789,0.801,1.789,1.789v635.679
				C2136.988,3070.499,2136.187,3071.3,2135.198,3071.3z" />

            <linearGradient id="SVGID_00000062874832715774527560000012261069424550739903_"
                gradientUnits="userSpaceOnUse" x1="740.9153" y1="1702.514" x2="1030.277"
                y2="2946.4341">
				<stop offset="0" style="stop-color:#4F52FF" />
                <stop offset="1" style="stop-color:#4042E2" />
			</linearGradient>

            <rect x="824.18" y="2447.434"
                style="fill:url(#SVGID_00000062874832715774527560000012261069424550739903_);"
                width="320.698" height="604.67" />
            <g>

					<ellipse transform="matrix(0.7071 -0.7071 0.7071 0.7071 -1738.7131 1508.5092)"
                        style="fill:#91B3FA;" cx="951.575" cy="2853.067" rx="82.023" ry="82.023" />
                <path style="opacity:0.25;fill:#FFFFFF;" d="M1020.282,2809.401l2.349,3.7c0.242,0.381,0.128,0.891-0.253,1.133l-136.073,86.381
					c-0.381,0.242-0.891,0.128-1.133-0.253l-2.349-3.7c-0.242-0.381-0.128-0.891,0.253-1.133l136.073-86.381
					C1019.53,2808.906,1020.04,2809.02,1020.282,2809.401z" />
			</g>
            <g>
				<path style="fill:#7D97F4;" d="M1002.686,2985.709l-2.111-0.878c-24.57-10.215-36.315-38.677-26.1-63.247l41.827-100.602
					c10.216-24.57,38.677-36.315,63.247-26.1l2.111,0.878c24.57,10.216,36.315,38.677,26.1,63.247l-41.827,100.601
					C1055.718,2984.179,1027.256,2995.924,1002.686,2985.709z" />

                <linearGradient id="SVGID_00000132063329049960271400000007604523409303806898_"
                    gradientUnits="userSpaceOnUse" x1="5260.0156" y1="-5566.1743" x2="5073.5659"
                    y2="-5233.2275"
                    gradientTransform="matrix(0.9586 -0.2849 0.2849 0.9586 31.9392 -1105.9379)">
					<stop offset="0" style="stop-color:#FF928E" />
                    <stop offset="1" style="stop-color:#FE7062" />
				</linearGradient>
                <path style="fill:url(#SVGID_00000132063329049960271400000007604523409303806898_);"
                    d="M1088.277,2905.866l27.357-65.798
					c10.457-25.151-1.566-54.285-26.717-64.742c-25.151-10.457-54.285,1.565-64.742,26.717l-27.912,67.134
					c6.355,4.59,13.146,8.597,20.174,12.037C1038.872,2892.108,1063.257,2901.811,1088.277,2905.866z" />
			</g>
            <g>
				<path style="fill:#7D97F4;" d="M1018.898,2730.081l-12.775,7.647c-23.342,13.972-53.872,6.307-67.845-17.035l-77.303-129.138
					c-15.295-25.552-6.904-58.972,18.648-74.268l2.193-1.313c25.483-15.254,58.814-6.885,74.068,18.598l78.976,131.934
					C1047.954,2688.379,1040.771,2716.987,1018.898,2730.081z" />

                <linearGradient id="SVGID_00000082326602278873538730000010361200071350382521_"
                    gradientUnits="userSpaceOnUse" x1="9489.6309" y1="-12700.5996" x2="9303.167"
                    y2="-12367.6279"
                    gradientTransform="matrix(0.3414 -0.9399 0.9399 0.3414 -4374.5303 -374.3095)">
					<stop offset="0" style="stop-color:#FF928E" />
                    <stop offset="1" style="stop-color:#FE7062" />
				</linearGradient>
                <path style="fill:url(#SVGID_00000082326602278873538730000010361200071350382521_);"
                    d="M997.484,2604.065l-40.905-68.334
					c-15.636-26.12-49.8-34.699-75.921-19.063c-26.121,15.636-34.699,49.8-19.063,75.921l41.735,69.721
					c8.35-2.656,16.466-6.09,24.229-10.115C952.266,2639.291,977.2,2623.841,997.484,2604.065z" />
			</g>
            <g style="opacity:0.8;">
				<g>
					<path style="fill:#FFFFFF;" d="M637.04,2605.39c0,13.232-3.342,23.372-10.023,30.41c-6.684,7.038-16.32,10.557-28.911,10.557
						c-12.332,0-22.824-2.424-31.476-7.267v-26.052c10.589,6.908,20.306,10.364,29.153,10.364c5.036,0,8.827-1.387,11.378-4.166
						c2.549-2.774,3.827-6.553,3.827-11.329c0-4.713-1.517-9.027-4.551-12.932c-3.037-3.905-8.039-8.246-15.012-13.026
						c-6.071-4.197-10.672-8.214-13.802-12.056c-3.131-3.842-5.552-8.151-7.263-12.932c-1.712-4.776-2.567-10.328-2.567-16.657
						c0-12.137,3.373-21.761,10.122-28.862c6.746-7.101,15.802-10.656,27.167-10.656c10.847,0,21.274,3.039,31.281,9.107
						l-8.717,21.11c-3.099-1.804-6.342-3.42-9.733-4.839c-3.389-1.423-7.02-2.132-10.894-2.132c-4.262,0-7.541,1.405-9.832,4.215
						c-2.291,2.805-3.436,6.634-3.436,11.473c0,4.78,1.369,8.946,4.116,12.496c2.742,3.551,7.536,7.586,14.381,12.106
						c9.233,6.199,15.672,12.528,19.321,18.982C635.215,2589.766,637.04,2597.123,637.04,2605.39z" />
                    <path style="fill:#FFFFFF;" d="M741.541,2502.826v91.616c0,16.855-3.811,29.719-11.428,38.597
						c-7.619,8.878-18.628,13.318-33.025,13.318c-14.078,0-24.795-4.408-32.156-13.223c-7.359-8.811-11.04-21.837-11.04-39.078
						v-91.23h26.148v93.169c0,18.013,5.972,27.021,17.918,27.021c5.552,0,9.846-2.294,12.88-6.876
						c3.034-4.587,4.554-11.105,4.554-19.566v-93.749H741.541z" />
				</g>
                <g>
					<path style="fill:#FFFFFF;" d="M1654.496,2646.358h-32.928l-13.85-74.188c-2.13-10.135-3.649-22.115-4.551-35.931l-0.774,7.168
						l-3.972,29.149l-13.461,73.801h-32.928l-25.666-141.593h25.859l12.687,79.901c1.225,8.003,2.873,20.562,4.94,37.673
						c1.614-17.303,3.131-29.669,4.551-37.094l15.109-80.48h27.311l15.109,80.48c2.002,11.944,3.584,24.373,4.747,37.287
						c2.26-19.113,3.905-31.734,4.94-37.866l12.299-79.901h26.054L1654.496,2646.358z" />
                    <path style="fill:#FFFFFF;" d="M1758.028,2646.358h-63.823v-141.593h63.823v22.757h-37.48v33.705h34.769v22.856h-34.769v39.226
						h37.48V2646.358z" />
				</g>
                <g>
					<path style="fill:#FFFFFF;"
                        d="M1268.107,2644.419h-26.247v-118.449h-27.118v-23.143h80.482v23.143h-27.118V2644.419z" />
                    <path style="fill:#FFFFFF;" d="M1403.115,2502.826v91.616c0,16.855-3.811,29.719-11.428,38.597
						c-7.619,8.878-18.628,13.318-33.025,13.318c-14.078,0-24.795-4.408-32.156-13.223c-7.359-8.811-11.04-21.837-11.04-39.078
						v-91.23h26.148v93.169c0,18.013,5.972,27.021,17.918,27.021c5.552,0,9.846-2.294,12.88-6.876
						c3.034-4.587,4.554-11.105,4.554-19.566v-93.749H1403.115z" />
				</g>
                <g>
					<path style="fill:#FFFFFF;"
                        d="M1925.523,2646.358h-26.247v-118.449h-27.118v-23.143h80.483v23.143h-27.118V2646.358z" />
                    <path style="fill:#FFFFFF;" d="M2055.205,2646.358h-26.344v-62.082h-34.768v62.082h-26.344v-141.593h26.344v56.269h34.768
						v-56.269h26.344V2646.358z" />
				</g>
                <g>
					<path style="fill:#FFFFFF;" d="M2240.055,2646.358h-26.148v-141.593h63.437v22.757h-37.289v39.32h34.771v22.762h-34.771
						V2646.358z" />
                    <path style="fill:#FFFFFF;" d="M2321.411,2591.251v55.106h-26.344v-141.593h34.479c14.59,0,25.356,3.452,32.298,10.36
						c6.941,6.912,10.411,17.469,10.411,31.671c0,17.887-6.037,30.379-18.109,37.479l27.214,62.082h-28.184l-22.371-55.106H2321.411
						z M2321.411,2568.589h6.778c6.198,0,10.654-1.76,13.367-5.279c2.711-3.519,4.067-8.766,4.067-15.737
						c0-7.231-1.437-12.384-4.309-15.45c-2.875-3.066-7.312-4.601-13.318-4.601h-6.585V2568.589z" />
				</g>
                <g>
					<path style="fill:#FFFFFF;" d="M2613.014,2605.39c0,13.232-3.342,23.372-10.023,30.41c-6.683,7.038-16.32,10.557-28.911,10.557
						c-12.333,0-22.824-2.424-31.476-7.267v-26.052c10.588,6.908,20.306,10.364,29.153,10.364c5.036,0,8.827-1.387,11.378-4.166
						c2.55-2.774,3.826-6.553,3.826-11.329c0-4.713-1.517-9.027-4.551-12.932c-3.037-3.905-8.039-8.246-15.012-13.026
						c-6.071-4.197-10.672-8.214-13.802-12.056s-5.552-8.151-7.262-12.932c-1.712-4.776-2.568-10.328-2.568-16.657
						c0-12.137,3.373-21.761,10.122-28.862c6.746-7.101,15.802-10.656,27.167-10.656c10.846,0,21.273,3.039,31.281,9.107
						l-8.717,21.11c-3.099-1.804-6.342-3.42-9.733-4.839c-3.389-1.423-7.02-2.132-10.894-2.132c-4.262,0-7.541,1.405-9.832,4.215
						c-2.292,2.805-3.436,6.634-3.436,11.473c0,4.78,1.369,8.946,4.116,12.496c2.743,3.551,7.536,7.586,14.382,12.106
						c9.233,6.199,15.672,12.528,19.321,18.982C2611.189,2589.766,2613.014,2597.123,2613.014,2605.39z" />
                    <path style="fill:#FFFFFF;" d="M2697.466,2644.419l-8.135-35.738h-36.898l-8.136,35.738h-26.344l35.06-142.176h35.736
						l35.157,142.176H2697.466z M2684.393,2585.34l-7.554-32.928c-0.453-2.002-1.47-7.02-3.052-15.059
						c-1.582-8.039-2.534-13.416-2.857-16.127c-0.839,5.552-1.906,11.67-3.196,18.354c-1.292,6.683-4.648,21.936-10.072,45.761
						H2684.393z" />
				</g>
			</g>
            <path style="fill:#FFFFFF;" d="M821.873,3071.3h-8.619c-0.988,0-1.789-0.801-1.789-1.789v-635.679
				c0-0.988,0.801-1.789,1.789-1.789h8.619c0.988,0,1.789,0.801,1.789,1.789v635.679
				C823.662,3070.499,822.861,3071.3,821.873,3071.3z" />
            <path style="fill:#FFFFFF;" d="M1155.286,3071.3h-8.619c-0.988,0-1.789-0.801-1.789-1.789v-635.679
				c0-0.988,0.801-1.789,1.789-1.789h8.619c0.988,0,1.79,0.801,1.79,1.789v635.679
				C1157.076,3070.499,1156.275,3071.3,1155.286,3071.3z" />

            <linearGradient id="SVGID_00000154424142506527999420000000500924607894218913_"
                gradientUnits="userSpaceOnUse" x1="948.611" y1="2264.8716" x2="988.6274"
                y2="2436.8955">
				<stop offset="0" style="stop-color:#4F52FF" />
                <stop offset="1" style="stop-color:#4042E2" />
			</linearGradient>
            <path style="fill:url(#SVGID_00000154424142506527999420000000500924607894218913_);" d="M1069.087,2436.335H895.515
				c-2.945,0-5.333-2.388-5.333-5.333v-42.607c0-2.946,2.388-5.333,5.333-5.333h173.572c2.945,0,5.333,2.388,5.333,5.333v42.607
				C1074.42,2433.948,1072.032,2436.335,1069.087,2436.335z" />
            <path style="fill:#7D97F4;" d="M1092.502,2388.89H847.788c-19.307,0-34.959-15.652-34.959-34.959v-444.482
				c0-19.307,15.652-34.959,34.959-34.959h244.715c19.307,0,34.959,15.652,34.959,34.959v444.482
				C1127.462,2373.239,1111.81,2388.89,1092.502,2388.89z" />
		</g>
        <g>

				<linearGradient id="SVGID_00000045605269847567522000000011208159821881347744_"
                    gradientUnits="userSpaceOnUse" x1="2517.3948" y1="1674.5973" x2="2362.5747"
                    y2="2188.9976">
				<stop offset="0" style="stop-color:#FEBBBA" />
                    <stop offset="1" style="stop-color:#FF928E" />
			</linearGradient>
            <path style="fill:url(#SVGID_00000045605269847567522000000011208159821881347744_);" d="M2580.873,1737.327
				c0,0,1.468-14.27-5.105-30.154c-6.573-15.884-43.27-18.623-53.129-30.125c-9.859-11.502-12.05,9.311-6.573,14.241
				c5.478,4.929-56.415-1.096-64.083-15.884c0,0-16.706-18.348-16.706,1.917c0,20.266,47.652,46.83,66.822,48.747
				c19.17,1.917,32.576,12.801,33.541,17.903C2545.095,1747.978,2580.873,1737.327,2580.873,1737.327z" />

            <linearGradient id="SVGID_00000094592411496012103860000010396980672190546622_"
                gradientUnits="userSpaceOnUse" x1="3379.8638" y1="507.777" x2="3193.4053"
                y2="840.7393">
				<stop offset="0" style="stop-color:#4F52FF" />
                <stop offset="1" style="stop-color:#4042E2" />
			</linearGradient>
            <path style="fill:url(#SVGID_00000094592411496012103860000010396980672190546622_);" d="M2726.107,1558.578
				c0,0-68.729,91.084-64.347,235.682c4.382,144.599-23.369,83.985-52.581,12.415c-29.212-71.569-29.212-71.569-29.212-71.569
				l-45.784,9.157c0,0,57.469,276.14,137.801,259.103c80.333-17.037,87.635-224.441,87.635-265.339
				C2759.619,1697.131,2726.107,1558.578,2726.107,1558.578z" />
            <g>

					<linearGradient id="SVGID_00000010310135730804229950000006498626502686804653_"
                        gradientUnits="userSpaceOnUse" x1="-252.1066" y1="6551.0532" x2="-647.0412"
                        y2="6875.2197" gradientTransform="matrix(-1 0 0 1 6726.439 0)">
					<stop offset="0" style="stop-color:#2B3582" />
                        <stop offset="1" style="stop-color:#150E42" />
				</linearGradient>
                <path
                    style="fill-rule:evenodd;clip-rule:evenodd;fill:url(#SVGID_00000010310135730804229950000006498626502686804653_);"
                    d="
					M2897.361,3140.288l5.494,13.483l-2.227,48.548c-0.313,6.823-5.817,12.549-13.237,13.693
					c-10.128,1.563-24.856,3.143-38.714,2.071c-10.85-0.838-17.647-11.029-13.401-20.127l16.344-35.017
					c2.444-5.238,6.91-9.26,12.375-11.145L2897.361,3140.288z" />

                <linearGradient id="SVGID_00000152944209718046906580000006282898684920901799_"
                    gradientUnits="userSpaceOnUse" x1="3811.9771" y1="2930.8992" x2="3910.6128"
                    y2="2930.8992" gradientTransform="matrix(-1 0 0 1 6726.439 0)">
					<stop offset="0" style="stop-color:#FEBBBA" />
                    <stop offset="1" style="stop-color:#FF928E" />
				</linearGradient>
                <path
                    style="fill-rule:evenodd;clip-rule:evenodd;fill:url(#SVGID_00000152944209718046906580000006282898684920901799_);"
                    d="
					M2914.462,2700.088c0,0-0.001,352.033-16.57,451.193c-0.849,5.088-4.729,9.179-9.815,10.042
					c-4.648,0.788-10.993,0.609-18.574-2.75c-3.815-1.691-6.348-5.423-6.859-9.563l-46.818-442.756L2914.462,2700.088z" />

                <linearGradient id="SVGID_00000088819456775877906600000001103040006669721268_"
                    gradientUnits="userSpaceOnUse" x1="-3520.9238" y1="6147.3301" x2="-3915.8572"
                    y2="6471.4956" gradientTransform="matrix(1 0 0 1 2887.8218 0)">
					<stop offset="0" style="stop-color:#2B3582" />
                    <stop offset="1" style="stop-color:#150E42" />
				</linearGradient>
                <path
                    style="fill-rule:evenodd;clip-rule:evenodd;fill:url(#SVGID_00000088819456775877906600000001103040006669721268_);"
                    d="
					M2956.223,3140.288l-5.493,13.483l-3.938,48.548c0.313,6.823,5.817,12.549,13.237,13.693
					c10.127,1.563,31.021,3.143,44.879,2.071c10.849-0.838,17.647-11.029,13.4-20.127l-16.343-35.017
					c-2.444-5.238-6.911-9.26-12.376-11.145L2956.223,3140.288z" />

                <linearGradient id="SVGID_00000047774703504157426660000002310497410494279343_"
                    gradientUnits="userSpaceOnUse" x1="51.2999" y1="2930.8994" x2="149.937"
                    y2="2930.8994" gradientTransform="matrix(1 0 0 1 2887.8218 0)">
					<stop offset="0" style="stop-color:#FEBBBA" />
                    <stop offset="1" style="stop-color:#FF928E" />
				</linearGradient>
                <path
                    style="fill-rule:evenodd;clip-rule:evenodd;fill:url(#SVGID_00000047774703504157426660000002310497410494279343_);"
                    d="
					M2939.122,2700.088c0,0,0.001,356.679,16.973,453.547c0.558,3.18,2.791,5.849,5.867,6.83c4.934,1.573,13.235,2.525,23.741-2.651
					c2.731-1.344,4.641-3.987,5.016-7.008l47.041-444.553L2939.122,2700.088z" />
			</g>

            <linearGradient id="SVGID_00000018958070111982731440000006486976816921751227_"
                gradientUnits="userSpaceOnUse" x1="2940.8296" y1="2306.417" x2="3288.4224"
                y2="1452.5458">
				<stop offset="0" style="stop-color:#09005D" />
                <stop offset="1" style="stop-color:#1A0F91" />
			</linearGradient>
            <path style="fill:url(#SVGID_00000018958070111982731440000006486976816921751227_);" d="M2772.812,2003.367
				c-48.786,112.817-44.486,430.955,24.393,750.08c0,0,170.75,15.245,253.076,0c0,0,112.817-658.607-6.099-750.08H2772.812z" />

            <linearGradient id="SVGID_00000161629211282005601630000013063413910608131988_"
                gradientUnits="userSpaceOnUse" x1="3545.9587" y1="600.7856" x2="3359.5"
                y2="933.7477">
				<stop offset="0" style="stop-color:#4F52FF" />
                <stop offset="1" style="stop-color:#4042E2" />
			</linearGradient>
            <path style="fill:url(#SVGID_00000161629211282005601630000013063413910608131988_);" d="M3126.509,1579.542
				c0,0-64.032-106.719-198.192-137.21l-70.129-3.049c0,0-100.621,48.786-143.308,140.26l54.884,234.781l3.049,189.044
				c0,0,161.603,36.589,271.37,0l24.393-231.732L3126.509,1579.542z" />

            <linearGradient id="SVGID_00000175302950019483212730000011875308063234170046_"
                gradientUnits="userSpaceOnUse" x1="-1954.7146" y1="1649.611" x2="-1848.4846"
                y2="1343.062" gradientTransform="matrix(1 0 0 1 4769.1304 0)">
				<stop offset="0" style="stop-color:#FEBBBA" />
                <stop offset="1" style="stop-color:#FF928E" />
			</linearGradient>
            <path style="fill:url(#SVGID_00000175302950019483212730000011875308063234170046_);" d="M2852.089,1353.908v115.549
				c0,9.346,6.807,17.302,16.049,18.692c15.312,2.304,38.99,4.089,59.316-2.024c9.363-2.815,15.136-12.188,13.263-21.785
				l-21.547-110.432H2852.089z" />

            <linearGradient id="SVGID_00000021827516707041371050000015252982869779451274_"
                gradientUnits="userSpaceOnUse" x1="-394.0416" y1="-673.7883" x2="-568.8291"
                y2="-189.3773"
                gradientTransform="matrix(0.9997 -0.0268 0.0268 0.9997 3524.7112 1140.2321)">
				<stop offset="0" style="stop-color:#FF928E" />
                <stop offset="1" style="stop-color:#FEB3B1" />
			</linearGradient>
            <path style="fill:url(#SVGID_00000021827516707041371050000015252982869779451274_);" d="M2776.009,1190.084
				c0,0-67.924,197.033,25.677,218.229c110.157,24.946,143.177-120.574,143.177-120.574S2841.455,1014.468,2776.009,1190.084z" />
            <path style="fill:#FFFFFF;" d="M2971.75,1195.755c0,0-41.549-75.059-10.589-107.285c30.961-32.224,90.605-19.983,100.694,42.32
				C3071.943,1193.093,2992.859,1263.272,2971.75,1195.755z" />
            <path style="fill:#FFFFFF;" d="M2745.93,1174.723c-3.977,16.145,10.817,30.645,26.917,26.485
				c16.207-4.188,36.183-8.111,53.576-7.9c117.472,1.427,73.794,78.852,74.121,91.044c0.668,24.935,24.159-13.636,25.785-5.266
				c3.539,18.207-9.241,74.075-9.241,74.075s70.097-21.29,98.205-55.109c34.717-41.771,11.946-120.236-7.036-149.314
				c-17.402-26.658-87.786-66.712-121.232-62.764C2857.123,1089.502,2767.873,1085.66,2745.93,1174.723z" />

            <linearGradient id="SVGID_00000073690678445962272120000017763087369716694965_"
                gradientUnits="userSpaceOnUse" x1="-316" y1="-645.6322" x2="-490.7878"
                y2="-161.2206"
                gradientTransform="matrix(0.9997 -0.0268 0.0268 0.9997 3524.7112 1140.2321)">
				<stop offset="0" style="stop-color:#FEBBBA" />
                <stop offset="1" style="stop-color:#FF928E" />
			</linearGradient>
            <path style="fill:url(#SVGID_00000073690678445962272120000017763087369716694965_);" d="M2911.662,1300.83
				c0,0,7.919-45.965,32.548-37.474c24.629,8.49-16.655,61.45-31.649,71.003L2911.662,1300.83z" />

            <linearGradient id="SVGID_00000155828118946687912070000004143213326699042483_"
                gradientUnits="userSpaceOnUse" x1="3753.488" y1="717.0019" x2="3567.0293"
                y2="1049.9641">
				<stop offset="0" style="stop-color:#4F52FF" />
                <stop offset="1" style="stop-color:#4042E2" />
			</linearGradient>
            <path style="fill:url(#SVGID_00000155828118946687912070000004143213326699042483_);" d="M3126.509,1579.542
				c0,0,222.584,344.549-33.541,503.102l-23.364-33.226c0,0,120.937-177.163,8.119-335.716L3126.509,1579.542z" />
            <path style="fill:#7D97F4;" d="M3041.133,3230.632c-5.894,0-10.671-4.78-10.671-10.672V2103.988
				c0-5.893,4.777-10.673,10.671-10.673c5.895,0,10.672,4.78,10.672,10.673V3219.96
				C3051.805,3225.852,3047.028,3230.632,3041.133,3230.632z" />

            <linearGradient id="SVGID_00000098902759179316101780000002051719146673943708_"
                gradientUnits="userSpaceOnUse" x1="-1762.3301" y1="2107.1008" x2="-1676.1624"
                y2="2107.1008" gradientTransform="matrix(1 0 0 1 4769.1304 0)">
				<stop offset="0" style="stop-color:#FEBBBA" />
                <stop offset="1" style="stop-color:#FF928E" />
			</linearGradient>
            <path style="fill:url(#SVGID_00000098902759179316101780000002051719146673943708_);" d="M3068.575,2049.103
				c0,0-57.933,21.344-60.981,67.081c-3.049,45.736,3.048,57.933,12.196,42.687s18.296-30.491,36.59-42.687
				c18.294-12.196,36.589-33.541,36.589-33.541S3089.919,2049.103,3068.575,2049.103z" />
		</g>
	</g>
</g>
</svg>
